<svg width="67" height="71" viewBox="0 0 67 71" fill="none" xmlns="http://www.w3.org/2000/svg">
<ellipse cx="28.5" cy="42" rx="28.5" ry="29" fill="#ECF5FF"/>
<path d="M35 6.40002C20.8868 6.40002 9.39999 17.8868 9.39999 32C9.39999 46.1132 20.8868 57.6 35 57.6C49.1132 57.6 60.6 46.1132 60.6 32C60.6 17.8868 49.1132 6.40002 35 6.40002ZM35 10.6667C46.8073 10.6667 56.3333 20.1927 56.3333 32C56.3333 43.8074 46.8073 53.3334 35 53.3334C23.1926 53.3334 13.6667 43.8074 13.6667 32C13.6667 20.1927 23.1926 10.6667 35 10.6667ZM25.4 27.7334C24.5513 27.7334 23.7374 28.0705 23.1373 28.6706C22.5371 29.2707 22.2 30.0847 22.2 30.9334C22.2 31.782 22.5371 32.596 23.1373 33.1961C23.7374 33.7962 24.5513 34.1334 25.4 34.1334C26.2487 34.1334 27.0626 33.7962 27.6627 33.1961C28.2629 32.596 28.6 31.782 28.6 30.9334C28.6 30.0847 28.2629 29.2707 27.6627 28.6706C27.0626 28.0705 26.2487 27.7334 25.4 27.7334ZM44.6 27.7334C43.7513 27.7334 42.9374 28.0705 42.3373 28.6706C41.7371 29.2707 41.4 30.0847 41.4 30.9334C41.4 31.782 41.7371 32.596 42.3373 33.1961C42.9374 33.7962 43.7513 34.1334 44.6 34.1334C45.4487 34.1334 46.2626 33.7962 46.8627 33.1961C47.4628 32.596 47.8 31.782 47.8 30.9334C47.8 30.0847 47.4628 29.2707 46.8627 28.6706C46.2626 28.0705 45.4487 27.7334 44.6 27.7334ZM28.5875 40.5167C28.1451 40.5415 27.7214 40.7035 27.3752 40.9801C27.0291 41.2567 26.7776 41.6342 26.6557 42.0602C26.5339 42.4862 26.5477 42.9396 26.6953 43.3574C26.8428 43.7752 27.1168 44.1367 27.4792 44.3917C29.195 45.6387 31.7644 46.9334 35 46.9334C38.2355 46.9334 40.806 45.6398 42.5208 44.3917C42.7475 44.2268 42.9394 44.0188 43.0856 43.7797C43.2318 43.5406 43.3295 43.275 43.3731 42.9981C43.4167 42.7212 43.4053 42.4384 43.3396 42.166C43.2739 41.8935 43.1551 41.6366 42.9901 41.41C42.8251 41.1835 42.6171 40.9916 42.3779 40.8455C42.1388 40.6993 41.8731 40.6017 41.5962 40.5582C41.3193 40.5147 41.0366 40.5262 40.7641 40.592C40.4917 40.6578 40.2348 40.7766 40.0083 40.9417C38.792 41.8269 37.0978 42.6667 35 42.6667C32.9022 42.6667 31.2071 41.828 29.9875 40.9417C29.6435 40.6836 29.2296 40.5354 28.8 40.5167C28.7292 40.5132 28.6583 40.5132 28.5875 40.5167Z" fill="black"/>
</svg>
