<svg width="71" height="67" viewBox="0 0 71 67" fill="none" xmlns="http://www.w3.org/2000/svg">
<circle cx="27" cy="40" r="27" fill="#ECF5FF"/>
<g clip-path="url(#clip0)">
<path d="M23.36 7.63998C22.04 7.78498 21.05 8.91498 21.08 10.24V53.76C21.065 54.685 21.55 55.54 22.35 56.005C23.145 56.475 24.135 56.475 24.93 56.005C25.73 55.54 26.215 54.685 26.2 53.76V10.24C26.21 9.54498 25.94 8.87998 25.45 8.38998C24.96 7.89998 24.295 7.62998 23.6 7.63998C23.52 7.63498 23.44 7.63498 23.36 7.63998ZM54.08 7.63998C52.76 7.78498 51.77 8.91498 51.8 10.24V53.76C51.785 54.685 52.27 55.54 53.07 56.005C53.865 56.475 54.855 56.475 55.65 56.005C56.45 55.54 56.935 54.685 56.92 53.76V10.24C56.93 9.54498 56.66 8.87998 56.17 8.38998C55.68 7.89998 55.015 7.62998 54.32 7.63998C54.24 7.63498 54.16 7.63498 54.08 7.63998ZM15.68 19.16C14.36 19.305 13.37 20.435 13.4 21.76V42.24C13.385 43.165 13.87 44.02 14.67 44.485C15.465 44.955 16.455 44.955 17.25 44.485C18.05 44.02 18.535 43.165 18.52 42.24V21.76C18.53 21.065 18.26 20.4 17.77 19.91C17.28 19.42 16.615 19.15 15.92 19.16C15.84 19.155 15.76 19.155 15.68 19.16ZM61.76 19.16C60.44 19.305 59.45 20.435 59.48 21.76V42.24C59.465 43.165 59.95 44.02 60.75 44.485C61.545 44.955 62.535 44.955 63.33 44.485C64.13 44.02 64.615 43.165 64.6 42.24V21.76C64.61 21.065 64.34 20.4 63.85 19.91C63.36 19.42 62.695 19.15 62 19.16C61.92 19.155 61.84 19.155 61.76 19.16ZM31.04 20.44C29.72 20.585 28.73 21.715 28.76 23.04V40.96C28.745 41.885 29.23 42.74 30.03 43.205C30.825 43.675 31.815 43.675 32.61 43.205C33.41 42.74 33.895 41.885 33.88 40.96V23.04C33.89 22.345 33.62 21.68 33.13 21.19C32.64 20.7 31.975 20.43 31.28 20.44C31.2 20.435 31.12 20.435 31.04 20.44ZM46.4 20.44C45.08 20.585 44.09 21.715 44.12 23.04V40.96C44.105 41.885 44.59 42.74 45.39 43.205C46.185 43.675 47.175 43.675 47.97 43.205C48.77 42.74 49.255 41.885 49.24 40.96V23.04C49.25 22.345 48.98 21.68 48.49 21.19C48 20.7 47.335 20.43 46.64 20.44C46.56 20.435 46.48 20.435 46.4 20.44ZM8.15999 26.84C8.10499 26.85 8.04999 26.865 7.99999 26.88C7.40499 27.015 6.98499 27.55 6.99999 28.16V35.84C6.99499 36.3 7.23499 36.73 7.63499 36.965C8.03499 37.195 8.52499 37.195 8.92499 36.965C9.32499 36.73 9.56499 36.3 9.55999 35.84V28.16C9.57499 27.79 9.42499 27.435 9.15999 27.185C8.88999 26.93 8.52499 26.805 8.15999 26.84ZM38.72 26.84C37.4 26.985 36.41 28.115 36.44 29.44V34.56C36.425 35.485 36.91 36.34 37.71 36.805C38.505 37.275 39.495 37.275 40.29 36.805C41.09 36.34 41.575 35.485 41.56 34.56V29.44C41.57 28.745 41.3 28.08 40.81 27.59C40.32 27.1 39.655 26.83 38.96 26.84C38.88 26.835 38.8 26.835 38.72 26.84ZM69.6 26.84C69.545 26.85 69.49 26.865 69.44 26.88C68.845 27.015 68.425 27.55 68.44 28.16V35.84C68.435 36.3 68.675 36.73 69.075 36.965C69.475 37.195 69.965 37.195 70.365 36.965C70.765 36.73 71.005 36.3 71 35.84V28.16C71.015 27.79 70.865 27.435 70.6 27.185C70.33 26.93 69.965 26.805 69.6 26.84Z" fill="black"/>
</g>
<defs>
<clipPath id="clip0">
<rect x="7" width="64" height="64" fill="white"/>
</clipPath>
</defs>
</svg>
