<svg width="70" height="64" viewBox="0 0 70 64" fill="none" xmlns="http://www.w3.org/2000/svg">
<rect y="21" width="42" height="42" fill="#ECF5FF"/>
<path d="M18.8 6.40002C16.4427 6.40002 14.5333 8.30936 14.5333 10.6667V46.9334C14.5333 49.2907 16.4427 51.2 18.8 51.2H35.8667V24.35L30.975 29.2417C30.1409 30.0758 28.7925 30.0758 27.9583 29.2417C27.1242 28.4076 27.1242 27.0592 27.9583 26.225L36.4917 17.6917C36.9077 17.2757 37.4539 17.0667 38 17.0667C38.5461 17.0667 39.0923 17.2757 39.5083 17.6917L48.0417 26.225C48.8758 27.0592 48.8758 28.4076 48.0417 29.2417C47.2075 30.0758 45.8591 30.0758 45.025 29.2417L40.1333 24.35V51.2H57.2C59.5573 51.2 61.4667 49.2907 61.4667 46.9334V10.6667C61.4667 8.30936 59.5573 6.40002 57.2 6.40002H18.8ZM40.1333 51.2H35.8667V59.7334C35.8667 60.911 36.8224 61.8667 38 61.8667C39.1776 61.8667 40.1333 60.911 40.1333 59.7334V51.2Z" fill="black"/>
</svg>
