<svg width="1396" height="512" viewBox="0 0 1396 512" fill="none" xmlns="http://www.w3.org/2000/svg">
<path d="M248.955 179.62C256.374 194.743 260.083 211.577 260.083 230.124C260.083 248.671 256.374 265.505 248.955 280.628C241.536 295.465 231.978 307.307 220.279 316.152C196.596 334.413 172.058 343.544 146.663 343.544H93.1631V391.908C93.1631 398.471 92.8778 403.464 92.3071 406.888C92.0218 410.027 90.7378 413.736 88.4551 418.016C84.4604 425.72 73.3324 429.572 55.0711 429.572C35.0978 429.572 23.3991 424.293 19.9751 413.736C18.2631 408.885 17.4071 401.467 17.4071 391.48V153.94C17.4071 147.377 17.5498 142.527 17.8351 139.388C18.4058 135.964 19.8324 132.112 22.1151 127.832C26.1098 120.128 37.2378 116.276 55.4991 116.276H147.091C172.2 116.276 196.596 125.407 220.279 143.668C231.978 152.513 241.536 164.497 248.955 179.62ZM147.091 267.788C155.651 267.788 164.068 264.649 172.343 258.372C180.618 252.095 184.755 242.679 184.755 230.124C184.755 217.569 180.618 208.153 172.343 201.876C164.068 195.313 155.508 192.032 146.663 192.032H93.1631V267.788H147.091Z" fill="#9BBFFA"/>
<circle cx="167" cy="184" r="63" fill="#2D8CFF"/>
<path d="M280.955 147.62C288.374 162.743 292.083 179.577 292.083 198.124C292.083 216.671 288.374 233.505 280.955 248.628C273.536 263.465 263.978 275.307 252.279 284.152C228.596 302.413 204.058 311.544 178.663 311.544H125.163V359.908C125.163 366.471 124.878 371.464 124.307 374.888C124.022 378.027 122.738 381.736 120.455 386.016C116.46 393.72 105.332 397.572 87.0711 397.572C67.0978 397.572 55.3991 392.293 51.9751 381.736C50.2631 376.885 49.4071 369.467 49.4071 359.48V121.94C49.4071 115.377 49.5498 110.527 49.8351 107.388C50.4058 103.964 51.8324 100.112 54.1151 95.832C58.1098 88.128 69.2378 84.276 87.4991 84.276H179.091C204.2 84.276 228.596 93.4067 252.279 111.668C263.978 120.513 273.536 132.497 280.955 147.62ZM179.091 235.788C187.651 235.788 196.068 232.649 204.343 226.372C212.618 220.095 216.755 210.679 216.755 198.124C216.755 185.569 212.618 176.153 204.343 169.876C196.068 163.313 187.508 160.032 178.663 160.032H125.163V235.788H179.091Z" fill="#2D8CFF"/>
<path d="M209.896 188.388C218.427 192.891 218.427 205.109 209.896 209.612L142.602 245.134C134.61 249.353 125 243.559 125 234.522L125 163.478C125 154.441 134.61 148.647 142.602 152.866L209.896 188.388Z" fill="#9BBFFA"/>
<circle cx="433.5" cy="247.5" r="50.5" fill="#232333"/>
<path d="M469.287 113.532L584.847 352.356C589.698 362.057 592.123 369.333 592.123 374.184C592.123 384.456 583.848 393.729 567.299 402.004C557.598 406.855 549.894 409.28 544.187 409.28C538.766 409.28 534.2 407.996 530.491 405.428C527.067 402.86 524.499 400.149 522.787 397.296C521.36 394.443 519.22 390.163 516.367 384.456L494.111 338.232H375.555L353.299 384.456C350.446 390.163 348.163 394.3 346.451 396.868C345.024 399.436 342.456 402.147 338.747 405C335.323 407.568 330.758 408.852 325.051 408.852C319.63 408.852 312.068 406.427 302.367 401.576C285.818 393.587 277.543 384.456 277.543 374.184C277.543 369.333 279.968 362.057 284.819 352.356L400.379 113.104C403.518 106.541 408.226 101.263 414.503 97.268C421.066 93.2733 427.914 91.276 435.047 91.276C450.455 91.276 461.868 98.6946 469.287 113.532ZM434.619 216.252L406.371 274.888H463.295L434.619 216.252ZM556.225 90.848H794.193C803.323 90.848 810.029 91.9893 814.309 94.272C818.589 96.2693 821.442 99.5507 822.869 104.116C824.295 108.681 825.009 114.673 825.009 122.092C825.009 129.511 824.295 135.503 822.869 140.068C821.442 144.348 819.017 147.344 815.593 149.056C810.457 151.624 803.181 152.908 793.765 152.908H712.017V368.192C712.017 374.755 711.731 379.605 711.161 382.744C710.875 385.883 709.591 389.592 707.309 393.872C705.311 397.867 701.602 400.72 696.181 402.432C690.759 404.144 683.626 405 674.781 405C665.935 405 658.802 404.144 653.381 402.432C648.245 400.72 644.535 397.867 642.253 393.872C640.255 389.592 638.971 385.883 638.401 382.744C638.115 379.32 637.973 374.327 637.973 367.764V152.908H555.797C546.666 152.908 539.961 151.909 535.681 149.912C531.401 147.629 528.547 144.205 527.121 139.64C525.694 135.075 524.981 129.083 524.981 121.664C524.981 114.245 525.694 108.396 527.121 104.116C528.547 99.5507 530.973 96.412 534.397 94.7C539.533 92.132 546.809 90.848 556.225 90.848ZM1019.27 322.824L1026.97 317.26C1036.67 311.553 1043.52 308.7 1047.52 308.7C1056.36 308.7 1065.92 316.689 1076.19 332.668C1082.47 342.655 1085.61 350.644 1085.61 356.636C1085.61 362.628 1083.61 367.621 1079.62 371.616C1075.91 375.611 1071.48 379.177 1066.35 382.316C1061.21 385.455 1056.22 388.451 1051.37 391.304C1046.8 394.157 1037.24 397.867 1022.69 402.432C1008.14 406.997 994.015 409.28 980.319 409.28C966.908 409.28 953.212 407.568 939.231 404.144C925.535 400.435 911.268 394.443 896.431 386.168C881.879 377.608 868.754 367.336 857.055 355.352C845.356 343.083 835.655 327.532 827.951 308.7C820.532 289.583 816.823 268.896 816.823 246.64C816.823 224.384 820.532 204.268 827.951 186.292C835.37 168.031 844.786 153.051 856.199 141.352C867.898 129.368 881.166 119.381 896.003 111.392C923.966 95.984 952.071 88.28 980.319 88.28C993.73 88.28 1007.28 90.42 1020.98 94.7C1034.96 98.6947 1045.52 102.832 1052.65 107.112L1062.92 113.104C1068.06 116.243 1072.05 118.811 1074.91 120.808C1082.33 126.8 1086.04 133.648 1086.04 141.352C1086.04 148.771 1083.04 156.617 1077.05 164.892C1065.92 180.3 1055.93 188.004 1047.09 188.004C1041.95 188.004 1034.68 184.865 1025.26 178.588C1013.28 168.887 997.296 164.036 977.323 164.036C958.776 164.036 940.515 170.456 922.539 183.296C913.979 189.573 906.846 198.419 901.139 209.832C895.432 221.245 892.579 234.228 892.579 248.78C892.579 263.047 895.432 275.887 901.139 287.3C906.846 298.713 914.122 307.701 922.967 314.264C940.372 326.819 958.491 333.096 977.323 333.096C986.168 333.096 994.443 331.955 1002.15 329.672C1010.14 327.389 1015.84 325.107 1019.27 322.824ZM1307.62 102.832C1309.9 98.552 1313.75 95.556 1319.17 93.844C1324.59 92.132 1331.44 91.276 1339.72 91.276C1347.99 91.276 1354.55 91.9893 1359.4 93.416C1364.25 94.8426 1367.96 96.5546 1370.53 98.552C1373.1 100.549 1375.1 103.403 1376.52 107.112C1377.95 111.963 1378.66 119.381 1378.66 129.368V366.908C1378.66 373.471 1378.38 378.464 1377.81 381.888C1377.52 385.027 1376.24 388.736 1373.96 393.016C1369.96 400.72 1358.83 404.572 1340.57 404.572C1320.6 404.572 1308.9 399.293 1305.48 388.736C1303.76 383.885 1302.91 376.467 1302.91 366.48V279.596H1189.49V366.908C1189.49 373.471 1189.2 378.464 1188.63 381.888C1188.35 385.027 1187.06 388.736 1184.78 393.016C1180.78 400.72 1169.66 404.572 1151.4 404.572C1131.42 404.572 1119.72 399.293 1116.3 388.736C1114.59 383.885 1113.73 376.467 1113.73 366.48V128.94C1113.73 122.377 1113.87 117.527 1114.16 114.388C1114.73 110.964 1116.16 107.112 1118.44 102.832C1122.43 95.128 1133.56 91.276 1151.82 91.276C1171.8 91.276 1183.64 96.5546 1187.35 107.112C1188.77 111.963 1189.49 119.381 1189.49 129.368V216.68H1302.91V128.94C1302.91 122.377 1303.05 117.527 1303.34 114.388C1303.91 110.964 1305.33 107.112 1307.62 102.832Z" fill="#232333"/>
</svg>
