<svg width="64" height="64" viewBox="0 0 64 64" fill="none" xmlns="http://www.w3.org/2000/svg">
<rect width="64" height="64" rx="8" fill="#2D8CFF"/>
<path d="M47 16.25H19C17.0697 16.25 15.5 17.8197 15.5 19.75V44.25C15.5 46.1803 17.0697 47.75 19 47.75H47C48.9303 47.75 50.5 46.1803 50.5 44.25V19.75C50.5 17.8197 48.9303 16.25 47 16.25ZM27.75 37.7855V26.2145C27.75 25.2835 28.7562 24.699 29.5647 25.161L39.4067 30.9465C40.2222 31.412 40.2222 32.5863 39.4067 33.0518L29.5647 38.8372C28.7562 39.301 27.75 38.7165 27.75 37.7855Z" fill="white"/>
</svg>
