<svg width="64" height="64" viewBox="0 0 64 64" fill="none" xmlns="http://www.w3.org/2000/svg">
<rect width="64" height="64" rx="8" fill="#868686"/>
<path d="M24.7533 44V40.192C26.0119 38.9547 27.1746 37.8027 28.2413 36.736C28.6893 36.288 29.1479 35.8293 29.6173 35.36C30.0866 34.8907 30.5239 34.4533 30.9293 34.048C31.3346 33.6427 31.6973 33.28 32.0173 32.96C32.3373 32.6187 32.5826 32.352 32.7533 32.16C33.0946 31.7547 33.3933 31.392 33.6493 31.072C33.9266 30.752 34.1399 30.4427 34.2893 30.144C34.4599 29.824 34.5879 29.5147 34.6733 29.216C34.7586 28.896 34.8013 28.5547 34.8013 28.192C34.8013 27.488 34.5239 26.88 33.9693 26.368C33.4146 25.8347 32.6573 25.568 31.6973 25.568C30.7373 25.568 29.9906 25.8453 29.4573 26.4C28.9239 26.9333 28.5613 27.5413 28.3693 28.224L24.5613 26.656C24.7319 26.08 25.0093 25.4933 25.3932 24.896C25.7773 24.2773 26.2679 23.7333 26.8653 23.264C27.4626 22.7733 28.1666 22.3787 28.9773 22.08C29.8093 21.76 30.7373 21.6 31.7613 21.6C32.8706 21.6 33.8733 21.7707 34.7693 22.112C35.6653 22.432 36.4226 22.88 37.0413 23.456C37.6599 24.032 38.1399 24.7147 38.4813 25.504C38.8226 26.272 38.9933 27.104 38.9933 28C38.9933 29.3653 38.6519 30.624 37.9693 31.776C37.3079 32.9067 36.4973 33.9627 35.5373 34.944L32.7853 37.696C32.0599 38.4213 31.2386 39.232 30.3213 40.128L30.4493 40.32H39.3133V44H24.7533Z" fill="white"/>
</svg>
