<svg width="64" height="64" viewBox="0 0 64 64" fill="none" xmlns="http://www.w3.org/2000/svg">
<rect width="64" height="64" rx="8" fill="#2D8CFF"/>
<path d="M33.3519 12.6801C32.7941 12.6801 32.256 12.9163 31.8786 13.3232L21.0801 24.4401V39.5601L31.8786 50.6769C32.256 51.0871 32.7941 51.3201 33.3519 51.3201C34.4577 51.3201 35.3601 50.4177 35.3601 49.3119V14.6882C35.3601 13.5824 34.4577 12.6801 33.3519 12.6801ZM44.3441 19.7544L43.4024 21.1424C47.1266 23.331 49.6401 27.3735 49.6401 32.0001C49.6401 36.6266 47.1266 40.6691 43.4024 42.8577L44.3441 44.2457C48.5146 41.7519 51.3201 37.2041 51.3201 32.0001C51.3201 26.796 48.5146 22.2482 44.3441 19.7544ZM41.5124 23.9183L40.5608 25.3161C42.9594 26.586 44.6001 29.1027 44.6001 32.0001C44.6001 34.8974 42.9594 37.4141 40.5608 38.684L41.5124 40.0818C44.354 38.5002 46.2801 35.4749 46.2801 32.0001C46.2801 28.5252 44.354 25.4999 41.5124 23.9183ZM15.2001 24.4401C13.8121 24.4401 12.6801 25.5721 12.6801 26.9601V37.0401C12.6801 38.428 13.8121 39.5601 15.2001 39.5601H19.4001V24.4401H15.2001ZM38.6544 28.1249L37.6733 29.5719C38.7561 29.8541 39.5601 30.8286 39.5601 32.0001C39.5601 33.1715 38.7561 34.146 37.6733 34.4282L38.6544 35.8752C40.1704 35.2386 41.2401 33.7424 41.2401 32.0001C41.2401 30.2577 40.1704 28.7582 38.6544 28.1249Z" fill="white"/>
</svg>
